<svg width="303" height="48" viewBox="0 0 303 48" fill="none" xmlns="http://www.w3.org/2000/svg">
<g clip-path="url(#clip0_1507_6017)">
<path d="M42.0106 19.7944L22.2159 30.9661L1.01947 19.0298L0 19.5821V28.2475L22.2159 40.736L42.0106 29.6068V34.1944L22.2159 45.3661L1.01947 33.4298L0 33.9821V35.4688L22.2159 47.9573L44.3894 35.4688V26.8033L43.3699 26.2511L22.2159 38.1449L2.37876 27.0157V22.4281L22.2159 33.5573L44.3894 21.0688V12.5307L43.285 11.8936L22.2159 23.7449L3.39823 13.2104L22.2159 2.63339L37.6779 11.3414L39.0372 10.5767V9.5148L22.2159 0.0422363L0 12.5307V13.89L22.2159 26.3785L42.0106 15.2068V19.7944Z" fill="#EE3D2C"/>
<path d="M85.8904 40.8634V2.71826H80.0284V16.9908C80.0284 17.2032 79.901 17.3731 79.6886 17.4581C79.4762 17.543 79.2638 17.4581 79.1364 17.3307C77.1399 14.9944 74.039 13.6776 70.6408 13.6776C63.3771 13.6776 57.6851 19.7944 57.6851 27.6103C57.6851 31.4333 59.0019 34.959 61.4231 37.5501C63.8444 40.1413 67.1151 41.543 70.6408 41.543C73.9966 41.543 77.0974 40.1413 79.1364 37.72C79.2638 37.5501 79.5187 37.5076 79.6886 37.5501C79.901 37.6351 80.0284 37.805 80.0284 38.0174V40.8634H85.8904ZM71.9151 36.2333C67.2426 36.2333 63.5895 32.4528 63.5895 27.6103C63.5895 22.7678 67.2426 18.9873 71.9151 18.9873C76.5877 18.9873 80.2408 22.7678 80.2408 27.6103C80.2408 32.4528 76.5877 36.2333 71.9151 36.2333Z" fill="white"/>
<path d="M117.239 40.8636V14.3149H111.42V16.991C111.42 17.2034 111.292 17.3733 111.08 17.4583C110.867 17.5432 110.655 17.4583 110.528 17.2884C108.574 14.9521 105.515 13.6353 102.032 13.6353C94.7682 13.6353 89.0762 19.7521 89.0762 27.568C89.0762 35.3839 94.7682 41.5007 102.032 41.5007C105.388 41.5007 108.489 40.099 110.528 37.6353C110.655 37.4653 110.91 37.4229 111.08 37.4653C111.292 37.5503 111.42 37.7202 111.42 37.9326V40.8211H117.239V40.8636ZM103.349 36.2335C98.6762 36.2335 95.0231 32.453 95.0231 27.6105C95.0231 22.768 98.6762 18.9875 103.349 18.9875C108.021 18.9875 111.674 22.768 111.674 27.6105C111.674 32.453 108.021 36.2335 103.349 36.2335Z" fill="white"/>
<path d="M167.066 40.8636V14.3149H161.246V16.991C161.246 17.2034 161.119 17.3733 160.906 17.4583C160.694 17.5432 160.482 17.4583 160.354 17.2884C158.4 14.9521 155.342 13.6353 151.859 13.6353C144.552 13.6353 138.903 19.7521 138.903 27.6105C138.903 35.4689 144.595 41.5432 151.859 41.5432C155.214 41.5432 158.315 40.1414 160.354 37.6777C160.482 37.5078 160.736 37.4653 160.906 37.5078C161.119 37.5928 161.246 37.7627 161.246 37.9751V40.8636H167.066V40.8636ZM153.175 36.2335C148.503 36.2335 144.85 32.453 144.85 27.6105C144.85 22.768 148.503 18.9875 153.175 18.9875C157.848 18.9875 161.501 22.768 161.501 27.6105C161.501 32.453 157.848 36.2335 153.175 36.2335Z" fill="white"/>
<path d="M177.728 37.72C177.77 37.72 177.855 37.6776 177.898 37.6776C178.025 37.6776 178.195 37.7625 178.28 37.8475C180.276 40.1837 183.377 41.5006 186.775 41.5006C194.039 41.5006 199.731 35.3837 199.731 27.5678C199.731 23.7448 198.414 20.2191 195.993 17.628C193.572 15.0368 190.301 13.6351 186.775 13.6351C183.42 13.6351 180.319 15.0368 178.28 17.4581C178.152 17.628 177.94 17.6705 177.728 17.628C177.515 17.543 177.388 17.3731 177.388 17.1607V2.71826H171.526V40.8634H177.388V38.1873C177.388 37.9749 177.515 37.805 177.728 37.72ZM177.133 27.6103C177.133 22.7678 180.786 18.9873 185.459 18.9873C190.131 18.9873 193.784 22.7678 193.784 27.6103C193.784 32.4528 190.131 36.2333 185.459 36.2333C180.786 36.2333 177.133 32.4103 177.133 27.6103Z" fill="white"/>
<path d="M216.68 19.7518C217.232 19.7518 217.742 19.7943 218.082 19.8793V13.8474C217.869 13.8049 217.487 13.7625 217.105 13.7625C214.046 13.7625 211.243 15.3341 209.756 17.8403C209.628 18.0527 209.416 18.1377 209.204 18.0527C208.991 18.0102 208.821 17.7978 208.821 17.5855V14.3147H203.002V40.9058H208.864V29.1819C208.864 23.3624 211.837 19.7518 216.68 19.7518Z" fill="white"/>
<path d="M227.724 14.3147H221.777V40.9058H227.724V14.3147Z" fill="white"/>
<path d="M224.666 2.7605C222.669 2.7605 221.055 4.37466 221.055 6.37112C221.055 8.36758 222.669 9.98174 224.666 9.98174C226.662 9.98174 228.276 8.36758 228.276 6.37112C228.276 4.37466 226.662 2.7605 224.666 2.7605Z" fill="white"/>
<path d="M245.14 13.6353C236.984 13.6353 231.08 19.4972 231.08 27.6105C231.08 31.5609 232.481 35.0866 234.988 37.6353C237.536 40.1839 241.104 41.5857 245.097 41.5857C248.411 41.5857 250.959 40.9485 255.802 37.3804L252.446 33.8547C250.067 35.4264 247.858 36.191 245.692 36.191C240.765 36.191 237.069 32.4954 237.069 27.6105C237.069 22.7255 240.765 19.0299 245.692 19.0299C248.028 19.0299 250.195 19.7945 252.361 21.3662L256.099 17.8406C251.724 14.1025 247.773 13.6353 245.14 13.6353Z" fill="white"/>
<path d="M266.124 29.1817C266.209 29.0968 266.336 29.0543 266.464 29.0543H266.506C266.634 29.0543 266.761 29.1393 266.889 29.2242L276.276 40.8632H283.498L271.349 26.1658C271.179 25.9534 271.179 25.6561 271.391 25.4862L282.563 14.3145H275.384L265.742 23.9994C265.614 24.1269 265.402 24.1693 265.19 24.1269C265.02 24.0419 264.892 23.872 264.892 23.6596V2.7605H258.988V40.9056H264.85V30.541C264.85 30.4136 264.892 30.2437 265.02 30.1587L266.124 29.1817Z" fill="white"/>
<path d="M293.055 41.543C297.855 41.543 302.74 38.612 302.74 33.0474C302.74 29.3943 300.446 26.8881 295.774 25.3589L292.588 24.297C290.421 23.5748 289.402 22.5554 289.402 21.1536C289.402 19.5394 290.846 18.435 292.885 18.435C294.839 18.435 296.581 19.7093 297.685 21.9182L302.4 19.3695C300.659 15.8014 297.048 13.5925 292.885 13.5925C287.618 13.5925 283.795 16.9908 283.795 21.6208C283.795 25.3164 286.004 27.7801 290.549 29.2244L293.82 30.2863C296.113 31.0085 297.09 31.943 297.09 33.4297C297.09 35.681 295.009 36.4881 293.225 36.4881C290.846 36.4881 288.722 34.9589 287.703 32.4527L282.903 35.0014C284.475 39.0368 288.34 41.543 293.055 41.543Z" fill="white"/>
<path d="M133.55 41.2881C135.419 41.2881 137.076 41.1182 138.011 40.9908V35.8934C137.246 35.9784 135.887 36.0634 135.08 36.0634C132.701 36.0634 130.874 35.6386 130.874 30.4988V19.5819C130.874 19.2846 131.087 19.0722 131.384 19.0722H137.119V14.2722H131.384C131.087 14.2722 130.874 14.0598 130.874 13.7625V6.11646H125.012V13.805C125.012 14.1023 124.8 14.3147 124.503 14.3147H120.425V19.1147H124.503C124.8 19.1147 125.012 19.3271 125.012 19.6244V31.9855C125.012 41.2881 131.214 41.2881 133.55 41.2881Z" fill="white"/>
</g>
<defs>
<clipPath id="clip0_1507_6017">
<rect width="302.782" height="48" fill="white"/>
</clipPath>
</defs>
</svg>
